<svg xmlns="http://www.w3.org/2000/svg" width="400" height="200" viewBox="0 0 400 200">
  <rect width="400" height="200" fill="#FDF2F8" />
  
  <!-- Growth Chart -->
  <line x1="80" y1="150" x2="320" y2="150" stroke="#DB2777" stroke-width="3" />
  <line x1="80" y1="50" x2="80" y2="150" stroke="#DB2777" stroke-width="3" />
  
  <!-- Chart Points & Line -->
  <circle cx="120" cy="120" r="5" fill="#DB2777" />
  <circle cx="160" cy="110" r="5" fill="#DB2777" />
  <circle cx="200" cy="90" r="5" fill="#DB2777" />
  <circle cx="240" cy="70" r="5" fill="#DB2777" />
  <circle cx="280" cy="60" r="5" fill="#DB2777" />
  
  <path d="M120,120 L160,110 L200,90 L240,70 L280,60" fill="none" stroke="#DB2777" stroke-width="2" />
  
  <!-- Social Media Icons -->
  <rect x="100" y="170" width="20" height="20" rx="4" fill="#DB2777" />
  <rect x="140" y="170" width="20" height="20" rx="10" fill="#DB2777" />
  <rect x="180" y="170" width="20" height="20" rx="4" fill="#DB2777" />
  <rect x="220" y="170" width="20" height="20" rx="4" fill="#DB2777" />
  <rect x="260" y="170" width="20" height="20" rx="10" fill="#DB2777" />
  
  <text x="200" y="30" font-family="Arial" font-size="14" text-anchor="middle" fill="#DB2777">MARKETING</text>
</svg> 