<svg xmlns="http://www.w3.org/2000/svg" width="400" height="200" viewBox="0 0 400 200">
  <rect width="400" height="200" fill="#F0FDF4" />
  
  <!-- Clipboard with checkmark -->
  <rect x="125" y="40" width="150" height="180" rx="5" fill="#FFFFFF" stroke="#047857" stroke-width="3" />
  <rect x="125" y="40" width="150" height="30" rx="5" fill="#047857" />
  
  <!-- Checklist items -->
  <rect x="145" y="90" width="15" height="15" fill="#DCFCE7" stroke="#047857" stroke-width="2" />
  <line x1="148" y1="97" x2="154" y2="103" stroke="#047857" stroke-width="2" />
  <line x1="154" y1="103" x2="162" y2="93" stroke="#047857" stroke-width="2" />
  <rect x="170" y="90" width="80" height="10" rx="2" fill="#DCFCE7" />
  
  <rect x="145" y="120" width="15" height="15" fill="#DCFCE7" stroke="#047857" stroke-width="2" />
  <line x1="148" y1="127" x2="154" y2="133" stroke="#047857" stroke-width="2" />
  <line x1="154" y1="133" x2="162" y2="123" stroke="#047857" stroke-width="2" />
  <rect x="170" y="120" width="80" height="10" rx="2" fill="#DCFCE7" />
  
  <rect x="145" y="150" width="15" height="15" fill="#DCFCE7" stroke="#047857" stroke-width="2" />
  <line x1="148" y1="157" x2="154" y2="163" stroke="#047857" stroke-width="2" />
  <line x1="154" y1="163" x2="162" y2="153" stroke="#047857" stroke-width="2" />
  <rect x="170" y="150" width="80" height="10" rx="2" fill="#DCFCE7" />
  
  <text x="200" y="60" font-family="Arial" font-size="14" text-anchor="middle" fill="#FFFFFF">COMPLIANCE</text>
</svg> 